<svg xmlns="http://www.w3.org/2000/svg" width="100" height="100" viewBox="0 0 100 100">
  <!-- خلفية دائرية -->
  <circle cx="50" cy="50" r="50" fill="#0066CC" />
  
  <!-- حرف S باللون الأبيض -->
  <path d="M64.5,35.8c0-10.8-9.2-16.5-19.9-16.5c-8.5,0-18.6,3.6-20.6,13.6h14.4c0.7-2.6,3-4.2,6.4-4.2
    c3.9,0,6.3,1.8,6.3,4.8c0,8.7-30.2,3.7-30.2,25.3c0,10.3,8.5,16.9,19.8,16.9c9.6,0,17.9-5.3,19.5-13.6H46
    c-0.7,2.7-3.6,4.2-6.6,4.2c-3.9,0-6.4-1.8-6.4-5.1C33,52.8,64.5,56.5,64.5,35.8z" fill="white"/>
</svg> 